<svg xmlns="http://www.w3.org/2000/svg" xmlns:xlink="http://www.w3.org/1999/xlink" width="768" zoomAndPan="magnify" viewBox="0 0 576 576" height="768" preserveAspectRatio="xMidYMid meet" version="1.0"><defs><clipPath id="37bc534c21"><path d="M 42.109375 31.117188 L 534.109375 31.117188 L 534.109375 523.117188 L 42.109375 523.117188 Z M 42.109375 31.117188 " clip-rule="nonzero"/></clipPath><clipPath id="1b65543fa3"><path d="M 534.066406 277.15625 C 534.066406 281.183594 533.96875 285.207031 533.769531 289.226562 C 533.574219 293.25 533.277344 297.261719 532.882812 301.269531 C 532.488281 305.277344 531.996094 309.269531 531.40625 313.253906 C 530.8125 317.234375 530.125 321.199219 529.339844 325.148438 C 528.554688 329.097656 527.671875 333.023438 526.695312 336.929688 C 525.714844 340.835938 524.644531 344.714844 523.472656 348.566406 C 522.304688 352.417969 521.042969 356.242188 519.6875 360.03125 C 518.332031 363.824219 516.882812 367.578125 515.339844 371.296875 C 513.800781 375.015625 512.167969 378.695312 510.449219 382.335938 C 508.726562 385.976562 506.917969 389.570312 505.019531 393.121094 C 503.121094 396.671875 501.136719 400.171875 499.066406 403.625 C 497 407.078125 494.84375 410.480469 492.609375 413.828125 C 490.371094 417.175781 488.054688 420.464844 485.65625 423.699219 C 483.257812 426.933594 480.78125 430.105469 478.226562 433.21875 C 475.671875 436.328125 473.042969 439.378906 470.339844 442.359375 C 467.636719 445.34375 464.863281 448.257812 462.015625 451.105469 C 459.167969 453.953125 456.253906 456.726562 453.269531 459.429688 C 450.289062 462.132812 447.238281 464.761719 444.128906 467.316406 C 441.015625 469.871094 437.84375 472.347656 434.609375 474.746094 C 431.375 477.144531 428.085938 479.460938 424.738281 481.699219 C 421.390625 483.933594 417.988281 486.089844 414.535156 488.160156 C 411.082031 490.226562 407.582031 492.210938 404.03125 494.109375 C 400.480469 496.007812 396.886719 497.816406 393.246094 499.539062 C 389.605469 501.257812 385.925781 502.890625 382.207031 504.429688 C 378.488281 505.972656 374.734375 507.421875 370.941406 508.777344 C 367.152344 510.132812 363.328125 511.394531 359.476562 512.5625 C 355.625 513.734375 351.746094 514.804688 347.839844 515.785156 C 343.933594 516.761719 340.007812 517.644531 336.058594 518.429688 C 332.109375 519.214844 328.144531 519.902344 324.164062 520.496094 C 320.179688 521.085938 316.1875 521.578125 312.179688 521.972656 C 308.171875 522.367188 304.160156 522.664062 300.136719 522.859375 C 296.117188 523.058594 292.09375 523.15625 288.066406 523.15625 C 284.042969 523.15625 280.015625 523.058594 275.996094 522.859375 C 271.976562 522.664062 267.960938 522.367188 263.953125 521.972656 C 259.949219 521.578125 255.953125 521.085938 251.972656 520.496094 C 247.988281 519.902344 244.023438 519.214844 240.074219 518.429688 C 236.125 517.644531 232.199219 516.761719 228.292969 515.785156 C 224.386719 514.804688 220.507812 513.734375 216.65625 512.5625 C 212.804688 511.394531 208.984375 510.132812 205.191406 508.777344 C 201.402344 507.421875 197.644531 505.972656 193.925781 504.429688 C 190.207031 502.890625 186.527344 501.257812 182.886719 499.539062 C 179.25 497.816406 175.652344 496.007812 172.101562 494.109375 C 168.554688 492.210938 165.050781 490.226562 161.597656 488.160156 C 158.144531 486.089844 154.746094 483.933594 151.398438 481.699219 C 148.050781 479.460938 144.757812 477.144531 141.523438 474.746094 C 138.292969 472.347656 135.117188 469.871094 132.007812 467.316406 C 128.894531 464.761719 125.847656 462.132812 122.863281 459.429688 C 119.878906 456.726562 116.964844 453.953125 114.117188 451.105469 C 111.273438 448.257812 108.496094 445.34375 105.792969 442.359375 C 103.089844 439.378906 100.460938 436.328125 97.90625 433.21875 C 95.351562 430.105469 92.875 426.933594 90.476562 423.699219 C 88.078125 420.464844 85.761719 417.175781 83.527344 413.828125 C 81.289062 410.480469 79.136719 407.078125 77.066406 403.625 C 74.996094 400.171875 73.011719 396.671875 71.113281 393.121094 C 69.214844 389.570312 67.40625 385.976562 65.6875 382.335938 C 63.964844 378.695312 62.332031 375.015625 60.792969 371.296875 C 59.253906 367.578125 57.804688 363.824219 56.445312 360.03125 C 55.089844 356.242188 53.828125 352.417969 52.660156 348.566406 C 51.492188 344.714844 50.417969 340.835938 49.4375 336.929688 C 48.460938 333.023438 47.578125 329.097656 46.792969 325.148438 C 46.007812 321.199219 45.320312 317.234375 44.730469 313.253906 C 44.140625 309.269531 43.644531 305.277344 43.25 301.269531 C 42.855469 297.261719 42.5625 293.25 42.363281 289.226562 C 42.164062 285.207031 42.066406 281.183594 42.066406 277.15625 C 42.066406 273.132812 42.164062 269.109375 42.363281 265.085938 C 42.5625 261.066406 42.855469 257.050781 43.25 253.042969 C 43.644531 249.039062 44.140625 245.042969 44.730469 241.0625 C 45.320312 237.078125 46.007812 233.113281 46.792969 229.164062 C 47.578125 225.214844 48.460938 221.289062 49.4375 217.382812 C 50.417969 213.480469 51.492188 209.601562 52.660156 205.746094 C 53.828125 201.894531 55.089844 198.074219 56.445312 194.28125 C 57.804688 190.492188 59.253906 186.738281 60.792969 183.015625 C 62.332031 179.296875 63.964844 175.617188 65.6875 171.980469 C 67.40625 168.339844 69.214844 164.742188 71.113281 161.195312 C 73.011719 157.644531 74.996094 154.140625 77.066406 150.6875 C 79.136719 147.234375 81.289062 143.835938 83.527344 140.488281 C 85.761719 137.140625 88.078125 133.847656 90.476562 130.613281 C 92.875 127.382812 95.351562 124.207031 97.90625 121.097656 C 100.460938 117.984375 103.089844 114.9375 105.792969 111.953125 C 108.496094 108.96875 111.273438 106.054688 114.117188 103.207031 C 116.964844 100.363281 119.878906 97.585938 122.863281 94.882812 C 125.847656 92.179688 128.894531 89.550781 132.007812 86.996094 C 135.117188 84.441406 138.292969 81.964844 141.523438 79.566406 C 144.757812 77.167969 148.050781 74.851562 151.398438 72.617188 C 154.746094 70.378906 158.144531 68.226562 161.597656 66.15625 C 165.050781 64.085938 168.554688 62.101562 172.101562 60.203125 C 175.652344 58.308594 179.25 56.496094 182.886719 54.777344 C 186.527344 53.054688 190.207031 51.421875 193.925781 49.882812 C 197.644531 48.34375 201.402344 46.894531 205.191406 45.539062 C 208.984375 44.179688 212.804688 42.917969 216.65625 41.75 C 220.507812 40.582031 224.386719 39.507812 228.292969 38.53125 C 232.199219 37.550781 236.125 36.667969 240.074219 35.882812 C 244.023438 35.097656 247.988281 34.410156 251.972656 33.820312 C 255.953125 33.230469 259.949219 32.734375 263.953125 32.339844 C 267.960938 31.945312 271.976562 31.652344 275.996094 31.453125 C 280.015625 31.257812 284.042969 31.15625 288.066406 31.15625 C 292.09375 31.15625 296.117188 31.257812 300.136719 31.453125 C 304.160156 31.652344 308.171875 31.945312 312.179688 32.339844 C 316.1875 32.734375 320.179688 33.230469 324.164062 33.820312 C 328.144531 34.410156 332.109375 35.097656 336.058594 35.882812 C 340.007812 36.667969 343.933594 37.550781 347.839844 38.53125 C 351.746094 39.507812 355.625 40.582031 359.476562 41.75 C 363.328125 42.917969 367.152344 44.179688 370.941406 45.539062 C 374.734375 46.894531 378.488281 48.34375 382.207031 49.882812 C 385.925781 51.421875 389.605469 53.054688 393.246094 54.777344 C 396.886719 56.496094 400.480469 58.308594 404.03125 60.203125 C 407.582031 62.101562 411.082031 64.085938 414.535156 66.15625 C 417.988281 68.226562 421.390625 70.378906 424.738281 72.617188 C 428.085938 74.851562 431.375 77.167969 434.609375 79.566406 C 437.84375 81.964844 441.015625 84.441406 444.128906 86.996094 C 447.238281 89.550781 450.289062 92.179688 453.269531 94.882812 C 456.253906 97.585938 459.167969 100.363281 462.015625 103.207031 C 464.863281 106.054688 467.636719 108.96875 470.339844 111.953125 C 473.042969 114.9375 475.671875 117.984375 478.226562 121.097656 C 480.78125 124.207031 483.257812 127.382812 485.65625 130.613281 C 488.054688 133.847656 490.371094 137.140625 492.609375 140.488281 C 494.84375 143.835938 497 147.234375 499.066406 150.6875 C 501.136719 154.140625 503.121094 157.644531 505.019531 161.195312 C 506.917969 164.742188 508.726562 168.339844 510.449219 171.980469 C 512.167969 175.617188 513.800781 179.296875 515.339844 183.015625 C 516.882812 186.738281 518.332031 190.492188 519.6875 194.28125 C 521.042969 198.074219 522.304688 201.894531 523.472656 205.746094 C 524.644531 209.601562 525.714844 213.480469 526.695312 217.382812 C 527.671875 221.289062 528.554688 225.214844 529.339844 229.164062 C 530.125 233.113281 530.8125 237.078125 531.40625 241.0625 C 531.996094 245.042969 532.488281 249.039062 532.882812 253.042969 C 533.277344 257.050781 533.574219 261.066406 533.769531 265.085938 C 533.96875 269.109375 534.066406 273.132812 534.066406 277.15625 Z M 534.066406 277.15625 " clip-rule="nonzero"/></clipPath><linearGradient x1="6.279917" gradientTransform="matrix(1.025, 0, 0, 1.025, 35.650558, 24.24861)" y1="6.760107" x2="486.24061" gradientUnits="userSpaceOnUse" y2="486.719416" id="61ac55aebd"><stop stop-opacity="1" stop-color="rgb(58.799744%, 45.899963%, 70.599365%)" offset="0"/><stop stop-opacity="1" stop-color="rgb(58.799744%, 45.899963%, 70.599365%)" offset="0.125"/><stop stop-opacity="1" stop-color="rgb(58.816528%, 45.909119%, 70.593262%)" offset="0.140625"/><stop stop-opacity="1" stop-color="rgb(59.043884%, 46.044922%, 70.516968%)" offset="0.144531"/><stop stop-opacity="1" stop-color="rgb(59.254456%, 46.170044%, 70.446777%)" offset="0.148438"/><stop stop-opacity="1" stop-color="rgb(59.465027%, 46.295166%, 70.375061%)" offset="0.152344"/><stop stop-opacity="1" stop-color="rgb(59.675598%, 46.420288%, 70.304871%)" offset="0.15625"/><stop stop-opacity="1" stop-color="rgb(59.886169%, 46.54541%, 70.23468%)" offset="0.160156"/><stop stop-opacity="1" stop-color="rgb(60.096741%, 46.672058%, 70.16449%)" offset="0.164062"/><stop stop-opacity="1" stop-color="rgb(60.307312%, 46.79718%, 70.094299%)" offset="0.167969"/><stop stop-opacity="1" stop-color="rgb(60.517883%, 46.922302%, 70.024109%)" offset="0.171875"/><stop stop-opacity="1" stop-color="rgb(60.728455%, 47.047424%, 69.952393%)" offset="0.175781"/><stop stop-opacity="1" stop-color="rgb(60.939026%, 47.172546%, 69.882202%)" offset="0.179688"/><stop stop-opacity="1" stop-color="rgb(61.149597%, 47.297668%, 69.812012%)" offset="0.183594"/><stop stop-opacity="1" stop-color="rgb(61.360168%, 47.424316%, 69.741821%)" offset="0.1875"/><stop stop-opacity="1" stop-color="rgb(61.57074%, 47.549438%, 69.670105%)" offset="0.191406"/><stop stop-opacity="1" stop-color="rgb(61.781311%, 47.674561%, 69.599915%)" offset="0.195313"/><stop stop-opacity="1" stop-color="rgb(61.990356%, 47.799683%, 69.529724%)" offset="0.199219"/><stop stop-opacity="1" stop-color="rgb(62.200928%, 47.924805%, 69.459534%)" offset="0.203125"/><stop stop-opacity="1" stop-color="rgb(62.411499%, 48.049927%, 69.387817%)" offset="0.207031"/><stop stop-opacity="1" stop-color="rgb(62.62207%, 48.175049%, 69.317627%)" offset="0.210938"/><stop stop-opacity="1" stop-color="rgb(62.832642%, 48.300171%, 69.247437%)" offset="0.214844"/><stop stop-opacity="1" stop-color="rgb(63.043213%, 48.426819%, 69.177246%)" offset="0.21875"/><stop stop-opacity="1" stop-color="rgb(63.253784%, 48.551941%, 69.107056%)" offset="0.222656"/><stop stop-opacity="1" stop-color="rgb(63.464355%, 48.677063%, 69.036865%)" offset="0.226562"/><stop stop-opacity="1" stop-color="rgb(63.674927%, 48.802185%, 68.965149%)" offset="0.230469"/><stop stop-opacity="1" stop-color="rgb(63.885498%, 48.927307%, 68.894958%)" offset="0.234375"/><stop stop-opacity="1" stop-color="rgb(64.096069%, 49.052429%, 68.824768%)" offset="0.238281"/><stop stop-opacity="1" stop-color="rgb(64.306641%, 49.177551%, 68.754578%)" offset="0.242188"/><stop stop-opacity="1" stop-color="rgb(64.517212%, 49.302673%, 68.682861%)" offset="0.246094"/><stop stop-opacity="1" stop-color="rgb(64.727783%, 49.429321%, 68.612671%)" offset="0.25"/><stop stop-opacity="1" stop-color="rgb(64.938354%, 49.554443%, 68.54248%)" offset="0.253906"/><stop stop-opacity="1" stop-color="rgb(65.148926%, 49.679565%, 68.47229%)" offset="0.257812"/><stop stop-opacity="1" stop-color="rgb(65.359497%, 49.804688%, 68.400574%)" offset="0.261719"/><stop stop-opacity="1" stop-color="rgb(65.570068%, 49.92981%, 68.330383%)" offset="0.265625"/><stop stop-opacity="1" stop-color="rgb(65.78064%, 50.054932%, 68.260193%)" offset="0.269531"/><stop stop-opacity="1" stop-color="rgb(65.991211%, 50.180054%, 68.190002%)" offset="0.273438"/><stop stop-opacity="1" stop-color="rgb(66.200256%, 50.305176%, 68.118286%)" offset="0.277344"/><stop stop-opacity="1" stop-color="rgb(66.410828%, 50.431824%, 68.048096%)" offset="0.28125"/><stop stop-opacity="1" stop-color="rgb(66.621399%, 50.556946%, 67.977905%)" offset="0.285156"/><stop stop-opacity="1" stop-color="rgb(66.83197%, 50.682068%, 67.907715%)" offset="0.289062"/><stop stop-opacity="1" stop-color="rgb(67.042542%, 50.80719%, 67.837524%)" offset="0.292969"/><stop stop-opacity="1" stop-color="rgb(67.253113%, 50.932312%, 67.767334%)" offset="0.296875"/><stop stop-opacity="1" stop-color="rgb(67.463684%, 51.057434%, 67.695618%)" offset="0.300781"/><stop stop-opacity="1" stop-color="rgb(67.674255%, 51.182556%, 67.625427%)" offset="0.304688"/><stop stop-opacity="1" stop-color="rgb(67.884827%, 51.307678%, 67.555237%)" offset="0.308594"/><stop stop-opacity="1" stop-color="rgb(68.095398%, 51.434326%, 67.485046%)" offset="0.3125"/><stop stop-opacity="1" stop-color="rgb(68.305969%, 51.559448%, 67.41333%)" offset="0.316406"/><stop stop-opacity="1" stop-color="rgb(68.516541%, 51.68457%, 67.34314%)" offset="0.320312"/><stop stop-opacity="1" stop-color="rgb(68.727112%, 51.809692%, 67.272949%)" offset="0.324219"/><stop stop-opacity="1" stop-color="rgb(68.937683%, 51.934814%, 67.202759%)" offset="0.328125"/><stop stop-opacity="1" stop-color="rgb(69.148254%, 52.059937%, 67.131042%)" offset="0.332031"/><stop stop-opacity="1" stop-color="rgb(69.358826%, 52.185059%, 67.060852%)" offset="0.335938"/><stop stop-opacity="1" stop-color="rgb(69.569397%, 52.310181%, 66.990662%)" offset="0.339844"/><stop stop-opacity="1" stop-color="rgb(69.779968%, 52.436829%, 66.920471%)" offset="0.34375"/><stop stop-opacity="1" stop-color="rgb(69.99054%, 52.561951%, 66.848755%)" offset="0.347656"/><stop stop-opacity="1" stop-color="rgb(70.201111%, 52.687073%, 66.778564%)" offset="0.351562"/><stop stop-opacity="1" stop-color="rgb(70.410156%, 52.812195%, 66.708374%)" offset="0.355469"/><stop stop-opacity="1" stop-color="rgb(70.620728%, 52.937317%, 66.638184%)" offset="0.359375"/><stop stop-opacity="1" stop-color="rgb(70.831299%, 53.062439%, 66.567993%)" offset="0.363281"/><stop stop-opacity="1" stop-color="rgb(71.04187%, 53.187561%, 66.497803%)" offset="0.367188"/><stop stop-opacity="1" stop-color="rgb(71.252441%, 53.312683%, 66.426086%)" offset="0.371094"/><stop stop-opacity="1" stop-color="rgb(71.463013%, 53.439331%, 66.355896%)" offset="0.375"/><stop stop-opacity="1" stop-color="rgb(71.673584%, 53.564453%, 66.285706%)" offset="0.378906"/><stop stop-opacity="1" stop-color="rgb(71.884155%, 53.689575%, 66.215515%)" offset="0.382812"/><stop stop-opacity="1" stop-color="rgb(72.094727%, 53.814697%, 66.143799%)" offset="0.386719"/><stop stop-opacity="1" stop-color="rgb(72.305298%, 53.939819%, 66.073608%)" offset="0.390625"/><stop stop-opacity="1" stop-color="rgb(72.515869%, 54.064941%, 66.003418%)" offset="0.394531"/><stop stop-opacity="1" stop-color="rgb(72.72644%, 54.191589%, 65.933228%)" offset="0.398438"/><stop stop-opacity="1" stop-color="rgb(72.937012%, 54.316711%, 65.861511%)" offset="0.402344"/><stop stop-opacity="1" stop-color="rgb(73.147583%, 54.441833%, 65.791321%)" offset="0.40625"/><stop stop-opacity="1" stop-color="rgb(73.358154%, 54.566956%, 65.72113%)" offset="0.410156"/><stop stop-opacity="1" stop-color="rgb(73.568726%, 54.692078%, 65.65094%)" offset="0.414063"/><stop stop-opacity="1" stop-color="rgb(73.779297%, 54.8172%, 65.579224%)" offset="0.417969"/><stop stop-opacity="1" stop-color="rgb(73.989868%, 54.942322%, 65.509033%)" offset="0.421875"/><stop stop-opacity="1" stop-color="rgb(74.200439%, 55.067444%, 65.438843%)" offset="0.425781"/><stop stop-opacity="1" stop-color="rgb(74.411011%, 55.194092%, 65.368652%)" offset="0.429688"/><stop stop-opacity="1" stop-color="rgb(74.620056%, 55.319214%, 65.298462%)" offset="0.433594"/><stop stop-opacity="1" stop-color="rgb(74.830627%, 55.444336%, 65.228271%)" offset="0.4375"/><stop stop-opacity="1" stop-color="rgb(75.041199%, 55.569458%, 65.156555%)" offset="0.441406"/><stop stop-opacity="1" stop-color="rgb(75.25177%, 55.69458%, 65.086365%)" offset="0.445312"/><stop stop-opacity="1" stop-color="rgb(75.462341%, 55.819702%, 65.016174%)" offset="0.449219"/><stop stop-opacity="1" stop-color="rgb(75.672913%, 55.944824%, 64.945984%)" offset="0.453125"/><stop stop-opacity="1" stop-color="rgb(75.883484%, 56.069946%, 64.874268%)" offset="0.457031"/><stop stop-opacity="1" stop-color="rgb(76.094055%, 56.196594%, 64.804077%)" offset="0.460938"/><stop stop-opacity="1" stop-color="rgb(76.304626%, 56.321716%, 64.733887%)" offset="0.464844"/><stop stop-opacity="1" stop-color="rgb(76.515198%, 56.446838%, 64.663696%)" offset="0.46875"/><stop stop-opacity="1" stop-color="rgb(76.725769%, 56.57196%, 64.59198%)" offset="0.472656"/><stop stop-opacity="1" stop-color="rgb(76.93634%, 56.697083%, 64.52179%)" offset="0.476562"/><stop stop-opacity="1" stop-color="rgb(77.146912%, 56.822205%, 64.451599%)" offset="0.480469"/><stop stop-opacity="1" stop-color="rgb(77.357483%, 56.947327%, 64.381409%)" offset="0.484375"/><stop stop-opacity="1" stop-color="rgb(77.568054%, 57.072449%, 64.311218%)" offset="0.488281"/><stop stop-opacity="1" stop-color="rgb(77.778625%, 57.199097%, 64.241028%)" offset="0.492188"/><stop stop-opacity="1" stop-color="rgb(77.989197%, 57.324219%, 64.169312%)" offset="0.496094"/><stop stop-opacity="1" stop-color="rgb(78.199768%, 57.449341%, 64.099121%)" offset="0.5"/><stop stop-opacity="1" stop-color="rgb(78.410339%, 57.574463%, 64.028931%)" offset="0.503906"/><stop stop-opacity="1" stop-color="rgb(78.620911%, 57.699585%, 63.95874%)" offset="0.507812"/><stop stop-opacity="1" stop-color="rgb(78.829956%, 57.824707%, 63.887024%)" offset="0.511719"/><stop stop-opacity="1" stop-color="rgb(79.040527%, 57.949829%, 63.816833%)" offset="0.515625"/><stop stop-opacity="1" stop-color="rgb(79.251099%, 58.074951%, 63.746643%)" offset="0.519531"/><stop stop-opacity="1" stop-color="rgb(79.46167%, 58.201599%, 63.676453%)" offset="0.523438"/><stop stop-opacity="1" stop-color="rgb(79.672241%, 58.326721%, 63.604736%)" offset="0.527344"/><stop stop-opacity="1" stop-color="rgb(79.882812%, 58.451843%, 63.534546%)" offset="0.53125"/><stop stop-opacity="1" stop-color="rgb(80.093384%, 58.576965%, 63.464355%)" offset="0.535156"/><stop stop-opacity="1" stop-color="rgb(80.303955%, 58.702087%, 63.394165%)" offset="0.539062"/><stop stop-opacity="1" stop-color="rgb(80.514526%, 58.827209%, 63.322449%)" offset="0.542969"/><stop stop-opacity="1" stop-color="rgb(80.725098%, 58.952332%, 63.252258%)" offset="0.546875"/><stop stop-opacity="1" stop-color="rgb(80.935669%, 59.077454%, 63.182068%)" offset="0.550781"/><stop stop-opacity="1" stop-color="rgb(81.14624%, 59.204102%, 63.111877%)" offset="0.554688"/><stop stop-opacity="1" stop-color="rgb(81.356812%, 59.329224%, 63.041687%)" offset="0.558594"/><stop stop-opacity="1" stop-color="rgb(81.567383%, 59.454346%, 62.971497%)" offset="0.5625"/><stop stop-opacity="1" stop-color="rgb(81.777954%, 59.579468%, 62.89978%)" offset="0.566406"/><stop stop-opacity="1" stop-color="rgb(81.988525%, 59.70459%, 62.82959%)" offset="0.570312"/><stop stop-opacity="1" stop-color="rgb(82.199097%, 59.829712%, 62.759399%)" offset="0.574219"/><stop stop-opacity="1" stop-color="rgb(82.409668%, 59.95636%, 62.689209%)" offset="0.578125"/><stop stop-opacity="1" stop-color="rgb(82.620239%, 60.081482%, 62.617493%)" offset="0.582031"/><stop stop-opacity="1" stop-color="rgb(82.830811%, 60.206604%, 62.547302%)" offset="0.585938"/><stop stop-opacity="1" stop-color="rgb(83.039856%, 60.331726%, 62.477112%)" offset="0.589844"/><stop stop-opacity="1" stop-color="rgb(83.250427%, 60.456848%, 62.406921%)" offset="0.59375"/><stop stop-opacity="1" stop-color="rgb(83.460999%, 60.58197%, 62.335205%)" offset="0.597656"/><stop stop-opacity="1" stop-color="rgb(83.67157%, 60.707092%, 62.265015%)" offset="0.601562"/><stop stop-opacity="1" stop-color="rgb(83.882141%, 60.832214%, 62.194824%)" offset="0.605469"/><stop stop-opacity="1" stop-color="rgb(84.092712%, 60.958862%, 62.124634%)" offset="0.609375"/><stop stop-opacity="1" stop-color="rgb(84.303284%, 61.083984%, 62.052917%)" offset="0.613281"/><stop stop-opacity="1" stop-color="rgb(84.513855%, 61.209106%, 61.982727%)" offset="0.617188"/><stop stop-opacity="1" stop-color="rgb(84.724426%, 61.334229%, 61.912537%)" offset="0.621094"/><stop stop-opacity="1" stop-color="rgb(84.934998%, 61.459351%, 61.842346%)" offset="0.625"/><stop stop-opacity="1" stop-color="rgb(85.145569%, 61.584473%, 61.772156%)" offset="0.628906"/><stop stop-opacity="1" stop-color="rgb(85.35614%, 61.709595%, 61.701965%)" offset="0.632812"/><stop stop-opacity="1" stop-color="rgb(85.566711%, 61.834717%, 61.630249%)" offset="0.636719"/><stop stop-opacity="1" stop-color="rgb(85.777283%, 61.961365%, 61.560059%)" offset="0.640625"/><stop stop-opacity="1" stop-color="rgb(85.987854%, 62.086487%, 61.489868%)" offset="0.644531"/><stop stop-opacity="1" stop-color="rgb(86.198425%, 62.211609%, 61.419678%)" offset="0.648438"/><stop stop-opacity="1" stop-color="rgb(86.408997%, 62.336731%, 61.347961%)" offset="0.652344"/><stop stop-opacity="1" stop-color="rgb(86.619568%, 62.461853%, 61.277771%)" offset="0.65625"/><stop stop-opacity="1" stop-color="rgb(86.830139%, 62.586975%, 61.207581%)" offset="0.660156"/><stop stop-opacity="1" stop-color="rgb(87.04071%, 62.712097%, 61.13739%)" offset="0.664062"/><stop stop-opacity="1" stop-color="rgb(87.249756%, 62.837219%, 61.065674%)" offset="0.667969"/><stop stop-opacity="1" stop-color="rgb(87.460327%, 62.963867%, 60.995483%)" offset="0.671875"/><stop stop-opacity="1" stop-color="rgb(87.670898%, 63.088989%, 60.925293%)" offset="0.675781"/><stop stop-opacity="1" stop-color="rgb(87.88147%, 63.214111%, 60.855103%)" offset="0.679688"/><stop stop-opacity="1" stop-color="rgb(88.092041%, 63.339233%, 60.784912%)" offset="0.683594"/><stop stop-opacity="1" stop-color="rgb(88.302612%, 63.464355%, 60.714722%)" offset="0.6875"/><stop stop-opacity="1" stop-color="rgb(88.513184%, 63.589478%, 60.643005%)" offset="0.691406"/><stop stop-opacity="1" stop-color="rgb(88.723755%, 63.7146%, 60.572815%)" offset="0.695312"/><stop stop-opacity="1" stop-color="rgb(88.934326%, 63.839722%, 60.502625%)" offset="0.699219"/><stop stop-opacity="1" stop-color="rgb(89.144897%, 63.96637%, 60.432434%)" offset="0.703125"/><stop stop-opacity="1" stop-color="rgb(89.355469%, 64.091492%, 60.360718%)" offset="0.707031"/><stop stop-opacity="1" stop-color="rgb(89.56604%, 64.216614%, 60.290527%)" offset="0.710938"/><stop stop-opacity="1" stop-color="rgb(89.776611%, 64.341736%, 60.220337%)" offset="0.714844"/><stop stop-opacity="1" stop-color="rgb(89.987183%, 64.466858%, 60.150146%)" offset="0.71875"/><stop stop-opacity="1" stop-color="rgb(90.197754%, 64.59198%, 60.07843%)" offset="0.722656"/><stop stop-opacity="1" stop-color="rgb(90.408325%, 64.717102%, 60.00824%)" offset="0.726562"/><stop stop-opacity="1" stop-color="rgb(90.618896%, 64.842224%, 59.938049%)" offset="0.730469"/><stop stop-opacity="1" stop-color="rgb(90.829468%, 64.968872%, 59.867859%)" offset="0.734375"/><stop stop-opacity="1" stop-color="rgb(91.040039%, 65.093994%, 59.796143%)" offset="0.738281"/><stop stop-opacity="1" stop-color="rgb(91.25061%, 65.219116%, 59.725952%)" offset="0.742188"/><stop stop-opacity="1" stop-color="rgb(91.459656%, 65.344238%, 59.655762%)" offset="0.746094"/><stop stop-opacity="1" stop-color="rgb(91.670227%, 65.46936%, 59.585571%)" offset="0.75"/><stop stop-opacity="1" stop-color="rgb(91.880798%, 65.594482%, 59.515381%)" offset="0.753906"/><stop stop-opacity="1" stop-color="rgb(92.09137%, 65.72113%, 59.44519%)" offset="0.757812"/><stop stop-opacity="1" stop-color="rgb(92.301941%, 65.846252%, 59.373474%)" offset="0.761719"/><stop stop-opacity="1" stop-color="rgb(92.512512%, 65.971375%, 59.303284%)" offset="0.765625"/><stop stop-opacity="1" stop-color="rgb(92.723083%, 66.096497%, 59.233093%)" offset="0.769531"/><stop stop-opacity="1" stop-color="rgb(92.933655%, 66.221619%, 59.162903%)" offset="0.773438"/><stop stop-opacity="1" stop-color="rgb(93.144226%, 66.346741%, 59.091187%)" offset="0.777344"/><stop stop-opacity="1" stop-color="rgb(93.354797%, 66.471863%, 59.020996%)" offset="0.78125"/><stop stop-opacity="1" stop-color="rgb(93.565369%, 66.596985%, 58.950806%)" offset="0.785156"/><stop stop-opacity="1" stop-color="rgb(93.77594%, 66.723633%, 58.880615%)" offset="0.789062"/><stop stop-opacity="1" stop-color="rgb(93.986511%, 66.848755%, 58.808899%)" offset="0.792969"/><stop stop-opacity="1" stop-color="rgb(94.197083%, 66.973877%, 58.738708%)" offset="0.796875"/><stop stop-opacity="1" stop-color="rgb(94.407654%, 67.098999%, 58.668518%)" offset="0.800781"/><stop stop-opacity="1" stop-color="rgb(94.618225%, 67.224121%, 58.598328%)" offset="0.804688"/><stop stop-opacity="1" stop-color="rgb(94.828796%, 67.349243%, 58.526611%)" offset="0.808594"/><stop stop-opacity="1" stop-color="rgb(95.039368%, 67.474365%, 58.456421%)" offset="0.8125"/><stop stop-opacity="1" stop-color="rgb(95.249939%, 67.599487%, 58.38623%)" offset="0.816406"/><stop stop-opacity="1" stop-color="rgb(95.46051%, 67.726135%, 58.31604%)" offset="0.820312"/><stop stop-opacity="1" stop-color="rgb(95.669556%, 67.851257%, 58.24585%)" offset="0.824219"/><stop stop-opacity="1" stop-color="rgb(95.880127%, 67.976379%, 58.175659%)" offset="0.828125"/><stop stop-opacity="1" stop-color="rgb(96.090698%, 68.101501%, 58.103943%)" offset="0.832031"/><stop stop-opacity="1" stop-color="rgb(96.30127%, 68.226624%, 58.033752%)" offset="0.835938"/><stop stop-opacity="1" stop-color="rgb(96.511841%, 68.351746%, 57.963562%)" offset="0.839844"/><stop stop-opacity="1" stop-color="rgb(96.722412%, 68.476868%, 57.893372%)" offset="0.84375"/><stop stop-opacity="1" stop-color="rgb(96.932983%, 68.60199%, 57.821655%)" offset="0.847656"/><stop stop-opacity="1" stop-color="rgb(97.143555%, 68.728638%, 57.751465%)" offset="0.851563"/><stop stop-opacity="1" stop-color="rgb(97.354126%, 68.85376%, 57.681274%)" offset="0.855469"/><stop stop-opacity="1" stop-color="rgb(97.564697%, 68.978882%, 57.611084%)" offset="0.859375"/><stop stop-opacity="1" stop-color="rgb(97.581482%, 68.988037%, 57.60498%)" offset="0.875"/><stop stop-opacity="1" stop-color="rgb(97.599792%, 68.998718%, 57.598877%)" offset="1"/></linearGradient></defs><rect x="-57.6" width="691.2" fill="#ffffff" y="-57.6" height="691.2" fill-opacity="1"/><rect x="-57.6" width="691.2" fill="#ffffff" y="-57.6" height="691.2" fill-opacity="1"/><g clip-path="url(#37bc534c21)"><g clip-path="url(#1b65543fa3)"><path fill="url(#61ac55aebd)" d="M 42.109375 31.15625 L 42.109375 523.117188 L 534.066406 523.117188 L 534.066406 31.15625 Z M 42.109375 31.15625 " fill-rule="nonzero"/></g></g><path fill="#fdfdfd" d="M 246 284.957031 C 246 286.515625 244.742188 287.785156 243.171875 287.785156 C 241.613281 287.785156 240.34375 286.527344 240.34375 284.957031 L 240.34375 249.195312 C 240.199219 246.480469 238.671875 243.96875 236.273438 242.082031 C 233.597656 239.980469 229.886719 238.667969 225.765625 238.667969 C 221.636719 238.667969 217.90625 239.980469 215.242188 242.101562 C 212.75 244.082031 211.203125 246.746094 211.203125 249.636719 L 211.203125 302.667969 C 212.574219 321.632812 221.597656 338.625 235.117188 350.90625 C 248.757812 363.308594 266.972656 370.914062 286.519531 370.914062 C 306.117188 370.914062 324.699219 363.164062 338.679688 350.589844 C 352.4375 338.207031 361.722656 321.160156 363.085938 302.257812 L 363.085938 223.734375 C 363.085938 220.71875 361.855469 217.984375 359.867188 215.996094 C 357.878906 214.007812 355.144531 212.777344 352.128906 212.777344 C 349.117188 212.777344 346.378906 214.007812 344.390625 215.996094 C 342.402344 217.984375 341.171875 220.71875 341.171875 223.734375 L 341.171875 284.722656 C 341.171875 286.28125 339.910156 287.550781 338.34375 287.550781 C 336.785156 287.550781 335.515625 286.289062 335.515625 284.722656 L 335.515625 223.734375 C 335.515625 223.457031 335.523438 223.179688 335.535156 222.902344 L 335.523438 196.570312 C 335.523438 193.652344 334.070312 190.964844 331.730469 188.988281 C 329.273438 186.90625 325.839844 185.613281 322.046875 185.613281 C 318.242188 185.613281 314.820312 186.90625 312.359375 188.988281 C 310.023438 190.964844 308.578125 193.652344 308.578125 196.570312 L 308.578125 284.804688 C 308.578125 286.363281 307.316406 287.632812 305.75 287.632812 C 304.191406 287.632812 302.917969 286.371094 302.917969 284.804688 L 302.917969 196.570312 C 302.917969 196.304688 302.929688 196.050781 302.941406 195.792969 L 302.929688 179.863281 C 302.929688 176.933594 301.515625 174.238281 299.230469 172.257812 C 296.851562 170.1875 293.53125 168.90625 289.859375 168.90625 C 286.191406 168.90625 282.871094 170.1875 280.492188 172.257812 C 278.214844 174.226562 276.8125 176.921875 276.8125 179.863281 L 276.8125 284.894531 C 276.8125 286.453125 275.550781 287.726562 273.992188 287.726562 C 272.4375 287.726562 271.164062 286.464844 271.164062 284.894531 L 271.164062 192.859375 C 271.164062 192.851562 271.164062 192.839844 271.164062 192.832031 C 271.164062 189.867188 269.792969 187.164062 267.585938 185.183594 C 265.300781 183.132812 262.113281 181.863281 258.578125 181.863281 C 255.050781 181.863281 251.863281 183.132812 249.566406 185.183594 C 247.363281 187.164062 245.992188 189.867188 245.992188 192.832031 L 245.992188 284.957031 Z M 289.726562 290.339844 L 306.242188 318.9375 L 306.25 318.9375 C 306.28125 318.996094 306.3125 319.050781 306.34375 319.109375 L 322.898438 347.769531 L 320.457031 349.183594 L 322.90625 347.769531 C 323.6875 349.121094 323.222656 350.84375 321.871094 351.625 C 321.421875 351.890625 320.917969 352.003906 320.4375 352.003906 L 253.863281 352.003906 C 252.304688 352.003906 251.035156 350.742188 251.035156 349.171875 C 251.035156 348.589844 251.207031 348.046875 251.515625 347.59375 L 268.070312 318.9375 L 268.058594 318.9375 C 268.101562 318.855469 268.152344 318.78125 268.203125 318.710938 L 284.726562 290.113281 L 287.164062 291.515625 L 284.714844 290.101562 C 285.496094 288.75 287.226562 288.289062 288.570312 289.066406 C 289.101562 289.375 289.492188 289.824219 289.726562 290.339844 Z M 287.15625 305.066406 C 288.710938 305.066406 289.984375 306.328125 289.984375 307.898438 L 289.984375 330.046875 C 289.984375 331.605469 288.722656 332.875 287.15625 332.875 C 285.597656 332.875 284.324219 331.617188 284.324219 330.046875 L 284.324219 307.898438 C 284.335938 306.339844 285.597656 305.066406 287.15625 305.066406 Z M 287.15625 334.863281 C 288.710938 334.863281 289.984375 336.125 289.984375 337.695312 L 289.984375 341.640625 C 289.984375 343.199219 288.722656 344.46875 287.15625 344.46875 C 285.597656 344.46875 284.324219 343.207031 284.324219 341.640625 L 284.324219 337.695312 C 284.335938 336.125 285.597656 334.863281 287.15625 334.863281 Z M 287.15625 334.863281 " fill-opacity="1" fill-rule="evenodd"/><path fill="#fdfdfd" d="M 129.917969 132.640625 L 129.917969 204.003906 C 129.917969 220.117188 154.285156 220.117188 154.285156 204.003906 L 154.285156 156.984375 L 203.382812 157.007812 C 214.472656 157.007812 214.472656 132.640625 203.382812 132.640625 C 178.882812 132.652344 154.417969 132.640625 129.917969 132.640625 Z M 129.917969 132.640625 " fill-opacity="1" fill-rule="evenodd"/><path fill="#fdfdfd" d="M 446.214844 132.640625 L 446.214844 204.003906 C 446.214844 220.117188 421.851562 220.117188 421.851562 204.003906 L 421.851562 156.984375 L 372.753906 157.007812 C 361.660156 157.007812 361.660156 132.640625 372.753906 132.640625 C 397.25 132.652344 421.714844 132.640625 446.214844 132.640625 Z M 446.214844 132.640625 " fill-opacity="1" fill-rule="evenodd"/><path fill="#fdfdfd" d="M 129.917969 421.671875 L 129.917969 350.3125 C 129.917969 334.199219 154.285156 334.199219 154.285156 350.3125 L 154.285156 397.316406 L 203.382812 397.296875 C 214.472656 397.296875 214.472656 421.660156 203.382812 421.660156 C 178.882812 421.660156 154.417969 421.671875 129.917969 421.671875 Z M 129.917969 421.671875 " fill-opacity="1" fill-rule="evenodd"/><path fill="#fdfdfd" d="M 446.214844 421.671875 L 446.214844 350.3125 C 446.214844 334.199219 421.851562 334.199219 421.851562 350.3125 L 421.851562 397.316406 L 372.753906 397.296875 C 361.660156 397.296875 361.660156 421.660156 372.753906 421.660156 C 397.25 421.660156 421.714844 421.671875 446.214844 421.671875 Z M 446.214844 421.671875 " fill-opacity="1" fill-rule="evenodd"/></svg>